<svg xmlns="http://www.w3.org/2000/svg" viewBox="0 0 1920 1080" width="1920" height="1080" data-scene="S01" role="img" aria-labelledby="S01-desc"><desc id="S01-desc">ปก: กล่องคำตอบหนึ่งกล่อง แล้วงานเดินต่อไปเป็นผลงานหนึ่งชิ้น คำถามคือไปถึงจุดที่ใช้ได้จริงหรือไม่</desc><style>
@font-face{font-family:"Noto Sans";font-weight:400;src:url(../fonts/NotoSans-Regular.woff2) format("woff2")}
@font-face{font-family:"Noto Sans";font-weight:500;src:url(../fonts/NotoSans-Medium.woff2) format("woff2")}
@font-face{font-family:"Noto Sans";font-weight:600;src:url(../fonts/NotoSans-SemiBold.woff2) format("woff2")}
text{font-family:"Noto Sans",sans-serif;font-kerning:normal;font-variant-numeric:tabular-nums}
</style><rect data-role="background" x="0" y="0" width="1920" height="1080" fill="#071923"/><g id="S01-b0" class="beat" data-beat="0"><text x="144" y="250" font-size="96" font-weight="500" fill="#F3F7F6" text-anchor="start" data-role="title" data-block="cover-title">From answers</text><text x="144" y="365" font-size="96" font-weight="500" fill="#F3F7F6" text-anchor="start" data-role="title" data-block="cover-title">to responsibility</text><g data-role="answer-box"><path d="M600,560 H940 Q964,560 964,584 V756 Q964,780 940,780 H716 L668,828 L676,780 H624 Q600,780 600,756 V584 Q600,560 624,560 Z" fill="#102E38" stroke="#73929C" stroke-width="4" stroke-linejoin="round"/><line x1="648" y1="628" x2="900" y2="628" stroke="#A7C0C8" stroke-width="6" stroke-linecap="round"/><line x1="648" y1="676" x2="900" y2="676" stroke="#A7C0C8" stroke-width="6" stroke-linecap="round"/><line x1="648" y1="724" x2="800" y2="724" stroke="#A7C0C8" stroke-width="6" stroke-linecap="round"/></g></g><g id="S01-b1" class="beat" data-beat="1"><g data-role="arrow"><path d="M996,670 H1164" fill="none" stroke="#73929C" stroke-width="4" stroke-linecap="round" stroke-linejoin="round"/><path d="M1188,670 L1166,659 L1166,681 Z" fill="#73929C" stroke="#73929C" stroke-width="2" stroke-linejoin="round"/></g><g data-role="work-object"><path d="M1256,530 H1396.4 L1436,569.6 V762 H1256 Z" fill="#071923" stroke="#73929C" stroke-width="4" stroke-linejoin="round"/><path d="M1396.4,530 V569.6 H1436" fill="none" stroke="#73929C" stroke-width="4" stroke-linejoin="round"/></g><g data-role="work-object"><path d="M1236,550 H1376.4 L1416,589.6 V782 H1236 Z" fill="#071923" stroke="#73929C" stroke-width="4" stroke-linejoin="round"/><path d="M1376.4,550 V589.6 H1416" fill="none" stroke="#73929C" stroke-width="4" stroke-linejoin="round"/></g><g data-role="work-object"><path d="M1216,570 H1372 L1416,614 V826 H1216 Z" fill="#102E38" stroke="#6DE3C0" stroke-width="6" stroke-linejoin="round"/><path d="M1372,570 V614 H1416" fill="none" stroke="#6DE3C0" stroke-width="6" stroke-linejoin="round"/><line x1="1252" y1="662.16" x2="1376" y2="662.16" stroke="#A7C0C8" stroke-width="6" stroke-linecap="round"/><line x1="1252" y1="705.68" x2="1376" y2="705.68" stroke="#A7C0C8" stroke-width="6" stroke-linecap="round"/><line x1="1252" y1="749.2" x2="1332" y2="749.2" stroke="#A7C0C8" stroke-width="6" stroke-linecap="round"/></g></g></svg>
